<?xml version="1.0" standalone="no"?>
<!DOCTYPE svg PUBLIC "-//W3C//DTD SVG 20010904//EN"
 "http://www.w3.org/TR/2001/REC-SVG-20010904/DTD/svg10.dtd">
<svg version="1.0" xmlns="http://www.w3.org/2000/svg"
 width="249.000000pt" height="249.000000pt" viewBox="0 0 249.000000 249.000000"
 preserveAspectRatio="xMidYMid meet">
<metadata>
Created by potrace 1.11, written by Peter Selinger 2001-2013
</metadata>
<g transform="translate(0.000000,249.000000) scale(0.100000,-0.100000)"
fill="#000000" stroke="none">
<path d="M10 1692 c-14 -5 -14 -892 0 -892 6 0 29 11 51 26 22 14 57 34 77 46
197 109 1410 803 1419 812 9 8 -193 11 -762 11 -426 0 -779 -1 -785 -3z"/>
<path d="M2298 1591 c-102 -59 -192 -111 -200 -115 -7 -3 -28 -15 -46 -26 -44
-27 -279 -163 -607 -352 -143 -82 -267 -153 -275 -158 -8 -6 -67 -39 -130 -76
-63 -36 -117 -68 -119 -70 -3 -3 349 -4 782 -3 l787 1 -2 454 c-1 250 -2 454
-3 454 0 0 -84 -49 -187 -109z"/>
</g>
</svg>
